#!OML:ASF F:\VICON\USERDATA\INSTALL\rory3\rory3.ASF
:FULLY-SPECIFIED
:DEGREES
19
root -0.6419760467208091 17.683200930751237 -13.638691151153525 -1.4434022421035682 6.873764295416189 -3.886075508266562
lfemur -23.751496158640336 -3.5018229992753707 -21.614798879911902
ltibia 40.95960494716881
lfoot -11.770492258430922 -10.711393951756198
ltoes -1.549438986165896
rfemur -7.638075314935616 -2.109073564721662 27.04960382182674
rtibia 96.09898943507854
rfoot 21.07318836933088 -13.163589872400987
rtoes 16.75529093526263
lowerback 16.497294665853378 1.0708685801249125 2.7687665678337847
upperback -0.0810401971793131 2.0672180570798093 1.1520152583587333
thorax -9.314926446702975 0.89152038332839 -0.8248265366114419
lowerneck -18.95710907201227 -5.346237131362294 -1.6914257418308614
upperneck 15.242890852615213 -7.620285833971931 4.051617598997037
head 8.059281598788417 -3.300166915230908 0.6760169324908786
lclavicle -1.7288339579140546e-15 1.7836277406293794e-15
lhumerus -61.08469287871746 -12.545202606964613 100.14099149352263
lradius 104.07300453730622
lwrist 33.45060030874515
lhand -25.856195461204592 0.7974909785469493
lfingers 7.12502
lthumb 0.6846115312644712 30.776103954813294
rclavicle -1.7288339579140546e-15 1.7836277406293794e-15
rhumerus -48.45430220059123 14.403489746506656 -101.75298760654478
rradius 104.6730078703663
rwrist -7.87791826191213
rhand -19.72158448437796 40.73909400224832
rfingers 7.12502
rthumb 6.6085656298443975 10.862194711397462
20
root -0.6466339297476754 17.474904309875008 -12.685891203494519 -1.1420037506779241 6.632264932292822 -2.5196102223956243
lfemur -22.372296868982566 -3.7977622864838767 -23.298896197680506
ltibia 45.081002645401725
lfoot -17.152487505831814 -7.689818912445531
ltoes 2.0965072937951312
rfemur -13.3077027587318 -3.786109668818779 23.90240915347134
rtibia 102.40698580909572
rfoot 20.997888626208372 -9.95280457613119
rtoes 15.041692378166726
lowerback 16.843592693252795 1.0303288455324946 0.9001372979979538
upperback 0.15045851686971012 1.6215396960297608 0.8064198433344687
thorax -9.309296540180364 0.7562996203157233 -0.03689990158299761
lowerneck -19.70270476026039 -5.254087752535584 -1.367471118519303
upperneck 15.087891786501622 -7.553945986516389 3.9693783346505027
head 8.117170190129487 -3.2486075000435086 0.5904370399563292
lclavicle -1.7288340642170573e-15 1.7836277577894746e-15
lhumerus -56.908796044123015 -14.232599850400652 100.17699142576025
lradius 104.53000408765587
lwrist 34.90129573029015
lhand -24.96100040442478 0.05629581559499086
lfingers 7.12502
lthumb 1.5492695954365574 30.03040641028186
rclavicle -1.7288340642170573e-15 1.7836277577894746e-15
rhumerus -49.2373014891497 13.324791696888811 -101.86498696693953
rradius 101.65501295321884
rwrist -6.520573334747023
rhand -22.24657155136114 37.4437150293749
rfingers 7.12502
rthumb 4.170698460321952 7.504846538011252
21
root -0.48428401951441113 18.000879201546788 -4.061343977054305 -0.24948517832606765 3.4224842767362484 -0.02183551232436276
lfemur -15.252713710657037 -2.836840001590457 -25.9911340257968
ltibia 44.227032207651405
lfoot -15.11906345054334 -6.602301067925146
ltoes -0.4952833345044425
rfemur -18.741045531274 -4.712461520796699 23.94006335412561
rtibia 106.17202129145952
rfoot 22.067984077170173 -10.058930242531508
rtoes 6.872940286206411
lowerback 16.804695399602988 0.7340622206069566 0.8827487347096938
upperback -0.009002893880289298 1.0470266823588168 0.6451613913932399
thorax -9.445282112076786 0.6672510811409766 0.5118442265660581
lowerneck -20.06323317439283 -4.803841520802628 -1.6877727153561195
upperneck 15.409325348945874 -7.056313643869966 3.6656525663168926
head 8.071498114392382 -2.8162044673890168 0.6240643244131939
lclavicle -1.7355428805285487e-15 1.7648009680118489e-15
lhumerus -48.76205114580806 -15.594266378186921 99.02717012555435
lradius 106.51692010483147
lwrist 35.64218329470252
lhand -24.88381870059975 0.3140877361863974
lfingers 7.12502
lthumb 1.6106591701595254 30.279897233599232
rclavicle -1.7256603638519611e-15 1.7859453104600536e-15
rhumerus -50.56435548162103 13.45579338592281 -101.70052157352362
rradius 101.45443042730786
rwrist -7.901991955580413
rhand -16.6183381081028 39.86208456639718
rfingers 7.12502
rthumb 9.53647001871302 10.272252325892039
22
root -0.41956049758004044 18.19769970014217 -2.8552732608290015 0.40478450813130884 1.8613896645750951 0.06082275869496945
lfemur -10.158356033076883 -2.26409216732866 -27.338783989440266
ltibia 42.17087092111105
lfoot -16.00505988268088 -6.115578039175106
ltoes -1.5894797549755317
rfemur -24.61690150624868 -4.593613911015471 23.611742007327926
rtibia 106.48888072035535
rfoot 23.02172993635147 -9.110149020297575
rtoes -0.09491641781642102
lowerback 16.79107743753197 0.49148171104229316 0.592607967157744
upperback -0.014714426848236206 0.5927514300303224 0.6833811858907732
thorax -9.428368582203824 0.5344082350707889 0.8931697845869057
lowerneck -20.22254426287137 -4.5352553611496855 -1.7993308897430802
upperneck 15.874901805295764 -6.514883615306622 3.5142151792127065
head 8.123507245291492 -2.5618466846973056 0.586869764575961
lclavicle -1.735591487375701e-15 1.7648057762379118e-15
lhumerus -40.97677633267206 -17.01273094580992 97.89871750762276
lradius 109.02309157740586
lwrist 36.35865476834071
lhand -24.788681342624063 1.1172153544566013
lfingers 7.12502
lthumb 1.662982104258565 30.991960223409922
rclavicle -1.7256527468175269e-15 1.785951434544667e-15
rhumerus -51.574493760573134 13.892181649224838 -101.75776366606632
rradius 101.15016337328436
rwrist -8.693599204910072
rhand -16.657725616773583 39.70275425711471
rfingers 7.12502
rthumb 9.592081494680832 9.990765306492985
